<?xml version="1.0" encoding="utf-8"?>
<svg version="1.1" xmlns="http://www.w3.org/2000/svg" viewBox="320 100 1720 1800" xml:space="preserve">
<g>
  
  <path fill-rule="evenodd" clip-rule="evenodd" fill="#5B5B5B" d="M474.8,292.6c-7.7,26.8,7.8,54.7,34.6,62.3l1208.3,345.9c26.8,7.7,54.7-7.8,62.3-34.6c7.7-26.8-7.8-54.7-34.6-62.3L537.1,258C510.3,250.4,482.4,265.9,474.8,292.6z"></path>
  <path fill-rule="evenodd" clip-rule="evenodd" fill="#5B5B5B" d="M707.1,1687.8c19.7,19.6,51.6,19.6,71.3-0.1l1002.9-1007c19.6-19.7,19.6-51.6-0.1-71.3c-19.7-19.6-51.6-19.6-71.3,0.1l-1002.9,1007C687.3,1636.3,687.3,1668.2,707.1,1687.8z"></path>
  <path fill-rule="evenodd" clip-rule="evenodd" fill="#5B5B5B" d="M1668.3,1380.4c11.9-25.2,1.2-55.2-23.9-67.2l-937.5-445c-25.2-11.9-55.2-1.2-67.2,23.9c-11.9,25.2-1.2,55.2,23.9,67.2l937.5,445C1626.3,1416.2,1656.3,1405.5,1668.3,1380.4z"></path>
  <path fill-rule="evenodd" clip-rule="evenodd" fill="#5B5B5B" d="M693.5,932.9c26.8-7.4,42.6-35.2,35.2-62L572,303.7c-7.4-26.8-35.2-42.6-62-35.2c-26.8,7.4-42.6,35.2-35.2,62l156.7,567.2C638.9,924.6,666.7,940.3,693.5,932.9z"></path>
  <path fill-rule="evenodd" clip-rule="evenodd" fill="#5B5B5B" d="M687.1,1675.3c8.5,26.5,36.9,41.1,63.4,32.5l891.8-287.5c26.5-8.5,41.1-36.9,32.5-63.4c-8.5-26.5-36.9-41.1-63.4-32.5l-891.8,287.5C693.1,1620.4,678.6,1648.8,687.1,1675.3z"></path>
  
  <path fill-rule="evenodd" clip-rule="evenodd" fill="#FFFFFF" d="M990.2,927.8c0-166.2-134.8-301-301-301s-301,134.8-301,301s134.8,301,301,301S990.2,1094,990.2,927.8z"></path>
  <path fill-rule="evenodd" clip-rule="evenodd" fill="#FFFFFF" d="M1960.6,661.2c0-121.8-98.7-220.5-220.5-220.5s-220.5,98.7-220.5,220.5s98.7,220.5,220.5,220.5S1960.6,783,1960.6,661.2z"></path>
  <path fill-rule="evenodd" clip-rule="evenodd" fill="#FFFFFF" d="M703.3,316.1c0-100.9-81.8-182.7-182.7-182.7s-182.7,81.8-182.7,182.7s81.8,182.7,182.7,182.7S703.3,417,703.3,316.1z"></path>
  <path fill-rule="evenodd" clip-rule="evenodd" fill="#FFFFFF" d="M1904.4,1376.6c0-144.3-117-261.3-261.3-261.3s-261.3,117-261.3,261.3s117,261.3,261.3,261.3S1904.4,1520.9,1904.4,1376.6z"></path>
  <path fill-rule="evenodd" clip-rule="evenodd" fill="#FFFFFF" d="M916.6,1668.4c0-109.5-88.8-198.2-198.2-198.2c-109.5,0-198.2,88.8-198.2,198.2c0,109.5,88.8,198.2,198.2,198.2C827.8,1866.7,916.6,1777.9,916.6,1668.4z"></path>
  
  <path fill-rule="evenodd" clip-rule="evenodd" fill="#63A375" d="M955.3,927.8c0-147-119.1-266.1-266.1-266.1S423.1,780.8,423.1,927.8s119.1,266.1,266.1,266.1S955.3,1074.7,955.3,927.8z"></path>
  <path fill-rule="evenodd" clip-rule="evenodd" fill="#D57A66" d="M1925.7,661.2c0-102.5-83.1-185.6-185.6-185.6c-102.5,0-185.6,83.1-185.6,185.6s83.1,185.6,185.6,185.6C1842.6,846.8,1925.7,763.7,1925.7,661.2z"></path>
  <path fill-rule="evenodd" clip-rule="evenodd" fill="#713E5A" d="M671.3,316.1c0-83.3-67.5-150.7-150.7-150.7s-150.7,67.5-150.7,150.7s67.5,150.7,150.7,150.7S671.3,399.3,671.3,316.1z"></path>
  <path fill-rule="evenodd" clip-rule="evenodd" fill="#2C7AB1" d="M1871.5,1376.6c0-126.1-102.2-228.3-228.3-228.3s-228.3,102.2-228.3,228.3s102.2,228.3,228.3,228.3S1871.5,1502.7,1871.5,1376.6z"></path>
  <path fill-rule="evenodd" clip-rule="evenodd" fill="#DCA05A" d="M879.7,1668.4c0-89.1-72.3-161.4-161.4-161.4s-161.4,72.3-161.4,161.4s72.3,161.4,161.4,161.4S879.7,1757.6,879.7,1668.4z"></path>
</g>
</svg>